<svg width="17" height="15" viewBox="0 0 17 15" fill="none" xmlns="http://www.w3.org/2000/svg">
<path d="M16.6667 0.833333C16.6667 0.3731 16.2936 0 15.8333 0H0.833333C0.3731 0 0 0.3731 0 0.833333V14.1667C0 14.6269 0.3731 15 0.833333 15H15.8333C16.2936 15 16.6667 14.6269 16.6667 14.1667V0.833333ZM1.66667 10H4.51337C5.15633 11.4716 6.62473 12.5 8.33333 12.5C10.0419 12.5 11.5103 11.4716 12.1533 10H15V13.3333H1.66667V10ZM1.66667 1.66667H15V8.33333H10.8333C10.8333 9.71408 9.71408 10.8333 8.33333 10.8333C6.95258 10.8333 5.83333 9.71408 5.83333 8.33333H1.66667V1.66667ZM11.6667 6.66667H9.16667V9.16667H7.5V6.66667H5L8.33333 2.91667L11.6667 6.66667Z" fill="#2C3436"/>
</svg>
